<svg aria-hidden="true" style="position:absolute;width:0;height:0" xmlns="http://www.w3.org/2000/svg" overflow="hidden"><defs><symbol id="icon-client4" viewBox="0 0 59 32"><path d="M19.529 12.905h-.001c-.834 0-1.51.601-1.51 1.342v.001c0 .741.676 1.342 1.51 1.342h.001c.834 0 1.51-.601 1.51-1.342v-.001c0-.741-.676-1.342-1.51-1.342zM30.677 12.476c-.002-1.03-.464-2.016-1.283-2.744s-1.929-1.138-3.088-1.141c-1.159.002-2.27.412-3.089 1.14s-1.281 1.715-1.283 2.745v5.678s8.742-.865 8.743-5.677v-.001zM14.957 20.017c.002.716.323 1.403.893 1.91s1.342.792 2.148.794c.806-.002 1.578-.288 2.148-.794s.891-1.193.893-1.909v-3.951s-6.083.603-6.083 3.95zm3.041.708c-.158 0-.311-.041-.442-.119s-.233-.188-.293-.318c-.06-.129-.076-.272-.045-.409s.107-.263.218-.362c.111-.099.253-.166.408-.194s.315-.013.46.04c.146.054.27.144.357.261s.134.253.134.393c0 .093-.02.186-.06.272s-.098.165-.172.23c-.074.066-.162.118-.259.154s-.201.054-.305.054v-.003zM24.145 20.335h-.587v.606h-.306v-1.484h.966v.248h-.66v.383h.587v.247zm1.47-.102c0 .146-.026.274-.077.384a.583.583 0 01-.552.345.589.589 0 01-.553-.342.876.876 0 01-.081-.379v-.073c0-.146.026-.274.078-.385a.583.583 0 01.553-.346c.123 0 .233.03.329.09.096.059.171.144.223.256s.079.239.079.384v.066zm-.31-.067c0-.156-.028-.274-.084-.355s-.135-.121-.238-.121c-.103 0-.182.04-.237.12s-.084.196-.085.351v.072c0 .151.028.269.084.353s.136.125.241.125c.103 0 .181-.04.236-.12s.083-.198.084-.353v-.072zm1.301.386c0-.058-.02-.102-.061-.133s-.114-.064-.22-.098a1.662 1.662 0 01-.252-.102c-.168-.091-.253-.214-.253-.368 0-.08.022-.151.067-.214s.11-.112.195-.148c.085-.035.18-.053.285-.053s.2.019.283.058c.083.038.147.092.193.162s.069.149.069.238h-.306c0-.068-.021-.121-.064-.158s-.103-.057-.18-.057c-.075 0-.133.016-.174.048s-.062.073-.062.124c0 .048.024.089.072.121s.121.063.215.092c.174.052.301.117.38.195s.119.174.119.289c0 .128-.049.229-.146.303s-.228.109-.392.109c-.114 0-.218-.021-.312-.062s-.165-.099-.215-.172a.442.442 0 01-.073-.253h.307c0 .164.098.246.293.246.073 0 .129-.015.17-.044s.061-.071.061-.124zm1.632-.847h-.454v1.236h-.306v-1.236h-.448v-.248h1.209v.248zm1.068.594h-.587v.397h.689v.246h-.995v-1.484h.993v.248h-.687v.354h.587v.239zm.83.099h-.244v.543h-.306v-1.484h.551c.175 0 .31.039.406.117s.143.189.143.331c0 .101-.022.186-.066.254s-.11.121-.199.161l.321.606v.014h-.328l-.278-.543zm-.243-.247h.247c.077 0 .136-.019.178-.058s.063-.093.063-.162c0-.07-.02-.125-.06-.165s-.1-.06-.182-.06h-.246v.445zm1.852.268v.523h-.306v-1.484h.579c.111 0 .209.02.294.061a.456.456 0 01.264.43c0 .145-.05.26-.15.344s-.237.125-.413.125h-.268zm0-.248h.273c.081 0 .142-.019.184-.057s.064-.092.064-.163c0-.073-.021-.131-.064-.176s-.102-.068-.177-.069h-.28v.466zm1.934.128h-.587v.397h.689v.246h-.995v-1.484h.993v.248h-.687v.354h.587v.239zm1.419-.594h-.455v1.236h-.306v-1.236h-.448v-.248h1.209v.248zm1.068.594h-.587v.397h.689v.246h-.994v-1.484h.992v.248h-.687v.354h.587v.239zm.83.099h-.243v.543h-.306v-1.484h.551c.175 0 .31.039.406.117s.143.189.143.331c0 .101-.022.186-.066.254s-.11.121-.199.161l.321.606v.014h-.328l-.278-.543zm-.243-.247H37c.077 0 .136-.019.178-.058s.063-.093.063-.162c0-.07-.02-.125-.06-.165s-.1-.06-.182-.06h-.246v.445zm1.796.401c0-.058-.021-.102-.061-.133s-.114-.064-.22-.098a1.602 1.602 0 01-.251-.102c-.169-.091-.253-.214-.253-.368 0-.08.022-.151.067-.214s.111-.112.195-.148a.742.742 0 01.285-.053c.106 0 .2.019.283.058s.147.092.192.162c.046.07.07.149.07.238h-.306c0-.068-.022-.121-.064-.158s-.103-.057-.18-.057c-.075 0-.133.016-.174.048s-.062.073-.062.124c0 .048.024.089.072.121s.121.063.215.092c.174.052.301.117.38.195s.119.174.119.289c0 .128-.049.229-.146.303s-.228.109-.392.109c-.114 0-.218-.021-.312-.062s-.165-.099-.215-.172a.442.442 0 01-.073-.253h.307c0 .164.098.246.294.246.073 0 .129-.015.17-.044s.061-.071.061-.124z"/></symbol><symbol id="icon-antenna1" viewBox="0 0 32 32"><path d="M30.773 22.098l-8.443-8.505.937-4.615c.242.094.499.144.758.146h.032a2.16 2.16 0 10-2.029-1.42l-.005-.015-4.96.605L8.972.161a.53.53 0 00-.377-.16.533.533 0 00-.373.155L6.709 1.66a.535.535 0 000 .754l.814.826C6.38 5.302 5.707 7.762 5.707 10.379c0 4.105 1.656 7.824 4.336 10.525l-.001-.001c.041.04.09.073.143.097l.003.001c-.034.18-.051.364-.052.547v6.187h-6.4a2.67 2.67 0 00-2.667 2.667v1.067c0 .295.239.533.533.533h24.533a.533.533 0 00.533-.533v-1.067a2.67 2.67 0 00-2.667-2.667h-6.4v-2.742c.915.2 1.968.317 3.047.32h.002a14.784 14.784 0 007.117-1.822l-.077.039.818.823a.53.53 0 00.377.16.533.533 0 00.373-.155l1.513-1.504a.535.535 0 000-.754zM23.28 6.233a1.066 1.066 0 11.752 1.822h-.003a1.067 1.067 0 01-.747-1.823h-.002zm-1.256 3.505l-.598 2.946-1.175-1.182 1.774-1.763zm-.605-.902l-1.92 1.909-1.485-1.493 3.405-.415zM24.004 28.8a1.6 1.6 0 011.6 1.6v.533H2.137V30.4a1.6 1.6 0 011.6-1.6h20.267zm-7.467-2.133v1.067h-5.333v-1.067h5.333zM11.204 25.6v-4.053c0-1.294 1.196-2.347 2.667-2.347s2.667 1.053 2.667 2.347V25.6h-5.333zm6.4-1.696v-2.357c0-1.882-1.675-3.413-3.733-3.413h-.058c-1.353 0-2.54.707-3.213 1.771l-.009.016a13.816 13.816 0 01-3.811-9.55c0-2.314.567-4.496 1.569-6.414l-.036.077 18.602 18.708c-1.823.947-3.979 1.502-6.266 1.502-1.079 0-2.129-.124-3.136-.358l.093.018zm11.289-.684L7.836 2.039l.755-.752 7.935 7.98c.004 0 .006.007.01.01l13.115 13.191-.757.752z"/><path fill="var(--color3, #2196f3)" d="M13.876 20.267h-.007a1.6 1.6 0 00-.002 3.2h.007a1.6 1.6 0 00.002-3.2zm.373 1.978a.534.534 0 01-.752-.756.532.532 0 11.746.756h.005z"/></symbol><symbol id="icon-astronaut1" viewBox="0 0 32 32"><path fill="var(--color3, #2196f3)" d="M31.974 4.524a.538.538 0 00-.427-.363h-.003l-1.91-.278-.855-1.731c-.179-.365-.777-.365-.956 0l-.855 1.731-1.91.278a.536.536 0 00-.296.91l1.383 1.348-.326 1.903a.536.536 0 00.525.624.524.524 0 00.252-.064l-.003.001 1.709-.899 1.709.899a.536.536 0 00.774-.566v.003l-.326-1.903 1.383-1.348a.535.535 0 00.134-.551l.001.004zm-2.463 1.327a.533.533 0 00-.153.475v-.003l.191 1.114-1-.526a.525.525 0 00-.501.001l.003-.001-1.001.526.191-1.114a.53.53 0 00-.153-.472l-.81-.789 1.119-.163a.537.537 0 00.401-.289l.001-.003.5-1.013.5 1.013a.54.54 0 00.399.292h.003l1.119.163-.809.789zm-3.377 14.671h-1.067v1.067h1.067v-1.067zm0 2.134h-1.067v1.067h1.067v-1.067zm1.066-1.067h-1.067v1.067H27.2v-1.067zm-2.133 0H24v1.067h1.067v-1.067zm-2.667 4.8h-1.067v1.067H22.4v-1.067zm0 2.133h-1.067v1.067H22.4v-1.067zm1.067-1.066H22.4v1.067h1.067v-1.067zm-2.134 0h-1.067v1.067h1.067v-1.067zM16 24.256h-1.067v1.067H16v-1.067zm0 2.133h-1.067v1.067H16v-1.067zm1.067-1.067H16v1.067h1.067v-1.067zm-2.134 0h-1.067v1.067h1.067v-1.067zm-9.066-19.2H4.8v1.067h1.067V6.122zm0 2.133H4.8v1.067h1.067V8.255z"/><path fill="var(--color3, #2196f3)" d="M6.933 7.189H5.866v1.067h1.067V7.189zm-2.133 0H3.733v1.067H4.8V7.189z"/><path d="M24.715 14.159a1.78 1.78 0 00-1.179-.704l-.009-.001a1.769 1.769 0 00-1.344.355l.004-.003-1.252.96-1.898 1.417-1.358-.541c2.421-1.086 4.114-3.508 4.114-6.32 0-3.823-3.123-6.933-6.961-6.933s-6.961 3.11-6.961 6.933v.001c0 1.398.418 2.698 1.136 3.782l-.016-.025-2.769-.024c-.009 0-.015.004-.023.005a.523.523 0 00-.159.032l.004-.001-.038.013c-.006.003-.013.003-.019.006l-3.234 1.597-1.893.911a.429.429 0 00-.064.036l.001-.001a1.78 1.78 0 00-.594 2.305l-.005-.01c.22.429.595.745 1.056.889a1.768 1.768 0 001.388-.133l-.009.005 1.388-.738 2.264-1.169 1.357-.008-6.783 6.75c-.316.315-.49.732-.49 1.178s.174.863.49 1.179c.325.323.752.485 1.179.485s.854-.162 1.18-.485l1.314-1.309 1.741-1.3.901.897-3.103 3.088c-.316.315-.49.732-.49 1.178s.174.863.49 1.179c.325.323.753.485 1.18.485s.855-.162 1.18-.485l3.483-3.469 1.01-1-.004-.004c.006-.006.015-.009.022-.015l5.166-5.658 3.471.494a.517.517 0 00.265-.034l-.003.001c.018-.006.033-.015.05-.023.019-.01.039-.015.058-.027l3.213-2.133c.012-.008.018-.021.029-.029.013-.01.029-.014.041-.026l1.271-1.191c.662-.62.753-1.635.212-2.362zM2.13 17.77a.706.706 0 01-.563.05l.005.001a.719.719 0 01-.215-1.258l.002-.001 1.314-.632.449 1.312-.992.528zm3.498-1.828l-1.548.8-.439-1.283 2.027-1.001-.04 1.484zm15.099-6.62a5.765 5.765 0 01-.614 2.592l.015-.033-4.181-1.899a1.863 1.863 0 00-.782-1.384l-.006-.004 1.464-4.86c2.378.756 4.105 2.974 4.105 5.588zm-11.789 0c0-3.235 2.644-5.867 5.894-5.867.253 0 .5.021.745.052l-1.432 4.754c-.019-.001-.037-.006-.057-.006-1.033 0-1.873.837-1.873 1.867s.84 1.867 1.873 1.867c.694 0 1.294-.383 1.618-.945l3.862 1.755a5.894 5.894 0 01-4.737 2.39c-3.25 0-5.894-2.632-5.894-5.867zm5.956.8c0 .441-.362.8-.806.8s-.806-.359-.806-.8c0-.441.362-.8.806-.8s.806.359.806.8zM2.465 25.146a.606.606 0 01-.855.001.59.59 0 010-.844l.962-.958.851.848-.959.955zm3.214 3.734a.606.606 0 01-.855.001.59.59 0 010-.844l.963-.959.852.848-.96.955zm3.481-3.469l-.002.001-1.765 1.76-.852-.848 1.765-1.756c.04-.04.065-.088.09-.135.007-.014.02-.026.026-.04.017-.041.019-.085.026-.129.003-.025.014-.047.014-.073 0-.036-.013-.07-.02-.106-.006-.032-.006-.065-.019-.095a.56.56 0 00-.091-.138c-.01-.012-.014-.027-.025-.038h-.001l-.001-.002-1.607-1.6c-.017-.017-.039-.024-.058-.038a.563.563 0 00-.084-.057l-.003-.001a.444.444 0 00-.089-.032l-.004-.001a.502.502 0 00-.101-.02h-.023a.468.468 0 00-.076.006h.003a.608.608 0 00-.108.021l.004-.001a.502.502 0 00-.096.046l.002-.001c-.02.011-.042.015-.061.029l-1.773 1.324-.901-.897 2.399-2.386 4.361 4.289-.928.919zm6.819-7.017c-.015-.002-.03.004-.045.003h-.02a.552.552 0 00-.282.077l.003-.001a.481.481 0 00-.083.061c-.013.011-.028.017-.04.029l-4.698 5.146-4.328-4.257 2.833-2.818a.535.535 0 00-.378-.911H8.94v-.001l-2.219.013.028-1.607 3.104.027a6.926 6.926 0 004.978 2.101h.004c.437 0 .864-.045 1.279-.123.04.032.079.065.13.085l2.41.96.331 1.644-3.003-.427zm4.041.178l-.313-1.558 1.446-1.08.947 1.257-2.08 1.381zm3.754-2.831l-.838.785-.931-1.236.831-.637a.734.734 0 01.547-.143h-.004a.72.72 0 01.479.282l.001.002a.712.712 0 01-.085.947z"/><path d="M13.602 18.544l-2.143-2.133a.534.534 0 00-.754 0l-2.142 2.133a.537.537 0 000 .756l2.142 2.133a.533.533 0 00.754-.001l2.143-2.133a.535.535 0 000-.756zm-2.519 1.759l-1.387-1.381 1.387-1.381 1.387 1.381-1.387 1.381zm6.081-15.232l-.258 1.036c.071.018 1.738.452 1.738 2.149h1.067c0-2.017-1.666-2.965-2.547-3.185zm2.547 4.251h-1.067v1.067h1.067V9.322z"/></symbol><symbol id="icon-client1" viewBox="0 0 57 32"><path d="M20.267 3.733l3.738 3.538-6.938-.004v17.166H35.2v-6.564l3.733 3.534V3.732H20.266zm14.769 13.722L24.439 7.423h10.597v10.032zm-3.29 4.468h-11.81V10.378h.835v10.764h10.975v.782zm-9.021 4.797l-.436.898-.436-.898h-.366l.637 1.198v.698h.331v-.698l.635-1.198h-.365zm.548 1.895l.154-.441h.734l.155.441h.344l-.717-1.896h-.296l-.716 1.896h.342zm.521-1.493l.275.786h-.549l.275-.786zm1.737.741a.426.426 0 00-.072.238v.003c0 .16.056.29.168.389s.263.148.451.148.349-.051.484-.152l.107.126h.367l-.279-.329a.944.944 0 00.165-.535l-.001-.041v.002h-.275v.011a.749.749 0 01-.081.341l.002-.004-.366-.432.129-.094c.091-.066.157-.132.197-.198s.06-.14.06-.219c0-.12-.044-.22-.133-.301s-.201-.122-.339-.122c-.153 0-.274.043-.365.13s-.135.203-.135.352c0 .061.014.124.043.189s.081.144.155.237c-.11.072-.204.159-.281.259l-.002.003zm.855.419a.478.478 0 01-.299.107c-.095 0-.17-.027-.227-.082s-.085-.126-.085-.214c0-.102.052-.192.156-.271l.04-.029.414.488zm-.34-.84c-.089-.11-.134-.202-.134-.275 0-.063.018-.116.055-.158s.085-.063.147-.063c.057 0 .105.018.142.053s.056.077.056.126v.006a.232.232 0 01-.081.177l-.04.033-.145.099zm3.086 1.03a.69.69 0 00.224-.472v-.002h-.328c-.017.135-.059.232-.124.29s-.162.087-.292.087c-.142 0-.249-.054-.323-.161s-.109-.264-.109-.469v-.168c.002-.202.041-.355.117-.46s.188-.158.331-.158c.123 0 .217.03.28.091s.104.158.12.294h.328c-.021-.207-.095-.368-.223-.482s-.296-.171-.505-.171h-.027a.717.717 0 00-.654.422l-.002.005c-.06.133-.095.288-.095.451v.023-.001.177c.003.174.035.328.098.46s.151.234.266.306c.11.067.243.107.386.107h.015-.001c.216 0 .389-.056.52-.169zm1.936-.266c.064-.141.096-.304.096-.49v-.105a1.151 1.151 0 00-.099-.486.727.727 0 00-.664-.432h-.024.001-.013a.751.751 0 00-.401.115l.003-.002c-.119.075-.211.183-.277.324s-.098.305-.098.49v.107c.001.181.034.342.099.48s.159.246.279.322c.113.07.251.112.398.112h.013-.001c.155 0 .293-.037.411-.112s.212-.183.276-.323zm-.352-1.071c.08.112.12.273.12.483v.099c0 .214-.04.376-.119.487s-.19.167-.336.167c-.144 0-.257-.057-.339-.171s-.121-.275-.121-.483v-.109c.002-.204.043-.362.122-.473s.192-.168.335-.168c.146 0 .258.056.337.168z"/></symbol><symbol id="icon-client2" viewBox="0 0 54 32"><path d="M25.455 3.014h-.069a9.922 9.922 0 00-.306-.012H24.793c-.217 0-.432.005-.646.016l.03-.001a14.32 14.32 0 00-5.427 1.4l.086-.037-.22.106v11.246l.514-.174c.451-.155.932-.294 1.429-.424a16.947 16.947 0 014.1-.546h.012v1.478c-.193.001-.382.007-.569.017l.028-.001h-.042a16.41 16.41 0 00-3.278.512l.114-.026a16.023 16.023 0 00-3.852 1.511l.083-.042V3.613a14.75 14.75 0 013.849-1.585l.105-.023c1.117-.3 2.4-.475 3.723-.48h.22c.26.006.513.018.75.036.626.044 1.248.143 1.857.296v1.454a10.861 10.861 0 00-1.762-.269l-.037-.002-.037-.003a4.366 4.366 0 00-.365-.021h-.003zm2.559 1.487c.323.025.657.036.995.036a16.06 16.06 0 004.03-.527l-.112.025a16.075 16.075 0 003.85-1.512l-.083.042v14.167a14.826 14.826 0 01-3.85 1.585l-.105.023c-1.117.299-2.4.473-3.723.479h-.097c-.97 0-1.912-.122-2.812-.35l.079.017V4.228c.218.05.443.097.672.136.375.063.771.11 1.156.138zm7.21.11l-.514.173c-.473.159-.95.301-1.429.428-1.395.359-2.83.543-4.27.548-.335 0-.644-.009-.942-.028l-.41-.027v11.569l.352.031c.326.028.663.043 1.002.043a13.685 13.685 0 003.459-.457l-.096.022a14.013 14.013 0 002.712-.981l-.084.037.22-.106V4.613zM18.152 22.965a.758.758 0 00-.547-.232h-.025.001-.011a.85.85 0 00-.324.064l.006-.002a.747.747 0 00-.421.422l-.002.005a.84.84 0 00-.059.311v1.936l-.001.033c0 .131.028.255.079.367l-.002-.006a.751.751 0 00.192.257l.001.001c.074.063.163.11.26.136l.005.001c.094.026.191.04.288.04a.817.817 0 00.798-.81v-.216h-.504v.184a.438.438 0 01-.031.163l.001-.003a.303.303 0 01-.073.108.32.32 0 01-.103.055l-.002.001a.377.377 0 01-.104.018h-.001c-.045.005-.09-.002-.132-.02s-.078-.047-.104-.084a.456.456 0 01-.067-.239v-.02.001-1.797-.019c0-.098.023-.19.064-.272l-.002.004a.256.256 0 01.248-.117h-.001.013a.26.26 0 01.212.108l.001.001a.416.416 0 01.084.25V23.769h.499v-.196-.006a.897.897 0 00-.231-.603l.001.001zm2.993-.022a.886.886 0 00-.573-.212.867.867 0 00-.307.056l.006-.002a.795.795 0 00-.459.423l-.002.005a.876.876 0 00-.073.353v.021-.001 1.869c0 .129.027.252.076.363l-.002-.006a.744.744 0 00.194.257l.001.001c.074.07.163.125.261.161l.005.002a.87.87 0 00.608-.002l-.006.002a.797.797 0 00.536-.753l-.001-.048v.002-1.848-.018a.904.904 0 00-.075-.361l.002.006a.844.844 0 00-.19-.27zm-.235 2.492l.001.025a.34.34 0 01-.101.242.365.365 0 01-.475 0h.001a.34.34 0 01-.101-.242l.001-.026v.001-1.848l-.001-.025a.34.34 0 01.101-.242.365.365 0 01.475 0h-.001c.062.06.101.145.101.239l-.001.03v-.001 1.848zm4.165.825v-3.499h-.484l-.636 1.852h-.009l-.641-1.852h-.479v3.499h.5v-2.129h.009l.49 1.505h.249l.493-1.505h.009v2.129h.5zm2.84-3.254a.7.7 0 00-.278-.189l-.005-.002a1.096 1.096 0 00-.343-.054h-.762v3.499h.499v-1.367h.257a.913.913 0 00.455-.098l-.005.002a.733.733 0 00.272-.264l.002-.003a.81.81 0 00.113-.3l.001-.005c.02-.132.029-.265.027-.398l.001-.056c0-.157-.018-.31-.052-.457l.003.014a.742.742 0 00-.184-.322zm-.257 1.067a.44.44 0 01-.047.185l.001-.003a.285.285 0 01-.126.122l-.002.001a.511.511 0 01-.209.045l-.027-.001h.001-.227v-1.19h.257l.024-.001c.073 0 .142.016.204.046l-.003-.001c.052.03.093.075.117.129a.506.506 0 01.044.194v.233c0 .081.005.165 0 .24h-.005zm2.619-1.312h-.409l-.771 3.499h.499l.146-.752h.68l.146.752h.499l-.79-3.499zm-.46 2.271l.245-1.268h.009l.244 1.268h-.499zm3.681-.163h-.009l-.753-2.108h-.479v3.499h.499v-2.104h.01l.762 2.104h.469v-3.499h-.499v2.108zm3.047-2.108l-.401 1.391h-.01l-.401-1.391h-.528l.685 2.02v1.479h.499v-1.479l.685-2.02h-.528zm-19.783 4.487h.24v.674h.163v-.674h.239v-.138h-.642v.138zm2.02-.138l-.315.812h.173l.067-.185h.324l.069.185h.177l-.323-.812h-.173zm-.026.491l.111-.301.11.301h-.221zm2.023.022h.188v.105a.308.308 0 01-.193.068c-.033.002-.065-.004-.095-.018s-.056-.034-.077-.06a.336.336 0 01-.061-.194l.001-.019v.001c0-.181.078-.271.234-.271.041-.004.082.007.116.03s.058.059.068.099l.161-.031c-.035-.159-.149-.239-.344-.239h-.01a.41.41 0 00-.274.105.389.389 0 00-.117.314v-.001.02c0 .109.04.209.105.286l-.001-.001a.39.39 0 00.28.119l.029-.001h-.001.014a.479.479 0 00.33-.13v-.32h-.352v.137zm2.039-.513h-.164v.812h.569v-.138h-.405v-.674zm1.724 0h-.164v.812h.164v-.812zm1.686.542l-.333-.543h-.159v.812h.153v-.531l.326.531h.163v-.812h-.15v.543zm1.524-.088h.405v-.138h-.405v-.178h.436v-.138h-.6v.812h.617v-.138h-.452v-.22zm3.695-.134h-.32v-.32h-.163v.812h.163v-.355h.32v.355h.163v-.812h-.163v.32zm1.533.134h.406v-.138h-.406v-.178h.437v-.138h-.6v.812h.615v-.138h-.452v-.22zm2.079 0c.141-.022.213-.097.213-.226l.001-.023a.192.192 0 00-.081-.157h-.001a.459.459 0 00-.208-.049l-.031.001h.001-.344v.812h.163v-.34h.045c.032 0 .063.007.09.019l-.001-.001a.179.179 0 01.058.058v.001l.177.258h.195l-.099-.159a.572.572 0 00-.178-.194l-.002-.001zm-.164-.112h-.121v-.204h.128l.035-.001c.047 0 .092.008.133.021l-.003-.001a.107.107 0 01.035.079.098.098 0 01-.014.051.105.105 0 01-.031.035.445.445 0 01-.135.02l-.032-.001h.001zm1.732.112h.405v-.138h-.405v-.178h.437v-.138h-.601v.812h.617v-.138h-.452v-.22z"/></symbol><symbol id="icon-client3" viewBox="0 0 57 32"><path d="M19.417 26.187c.008 0 .017.002.025.005s.015.007.02.013l.116.111a.958.958 0 01-.321.209l-.006.002a1.283 1.283 0 01-.439.076h-.027.001-.026c-.147 0-.288-.026-.418-.074l.008.003a.958.958 0 01-.33-.2h.001a.874.874 0 01-.21-.302l-.002-.006a1 1 0 01-.074-.382v-.015-.024c0-.27.118-.513.304-.679l.001-.001c.098-.086.214-.154.342-.199l.007-.002c.143-.048.296-.072.449-.071.143-.003.285.019.417.064.115.043.221.104.313.178l-.097.119a.103.103 0 01-.025.021.064.064 0 01-.034.009h-.006a.083.083 0 01-.042-.013l-.052-.032-.073-.04a.783.783 0 00-.224-.07l-.005-.001a1.115 1.115 0 00-.169-.013h-.014a.944.944 0 00-.32.055l.007-.002a.685.685 0 00-.415.383l-.002.004a.795.795 0 00-.06.306v.022c0 .109.022.214.062.309l-.002-.005a.683.683 0 00.397.381l.005.002a.84.84 0 00.29.05h.01-.001c.059.001.119-.003.177-.01a.689.689 0 00.385-.164l-.001.001a.088.088 0 01.055-.02zm3.359-.558v.011a.966.966 0 01-.081.388l.002-.006c-.047.114-.122.218-.219.305s-.214.155-.344.2a1.436 1.436 0 01-.894-.002l.01.003a1.02 1.02 0 01-.343-.202l.001.001a.912.912 0 01-.219-.302l-.002-.006a1.024 1.024 0 01.002-.793l-.003.007a.95.95 0 01.22-.309l.001-.001c.097-.084.214-.15.342-.193.284-.096.6-.096.884 0 .129.046.246.114.343.201a.91.91 0 01.298.675v.025-.001zm-.306 0v-.017a.831.831 0 00-.057-.305l.002.006a.658.658 0 00-.397-.384l-.005-.001a1.022 1.022 0 00-.651.002l.007-.002a.68.68 0 00-.246.149.638.638 0 00-.156.232l-.001.004a.915.915 0 00.002.638l-.002-.006c.07.182.216.322.398.383l.005.001c.207.067.435.067.643 0a.65.65 0 00.4-.38l.002-.005a.804.804 0 00.055-.296v-.021.001zm2.597.331l.03.071.033-.071a.614.614 0 01.04-.073l-.002.003.743-1.174c.015-.02.028-.033.042-.037a.204.204 0 01.051-.006h.231v1.909h-.26v-1.463l-.001-.033.001-.035v.002l-.747 1.19c-.009.018-.025.033-.044.043s-.041.016-.064.016h-.042c-.023 0-.045-.005-.064-.016s-.034-.026-.044-.044l-.769-1.198v1.533h-.252v-1.905h.23c.018 0 .035.002.052.007h-.001a.092.092 0 01.041.037l.759 1.175c.014.02.026.042.037.065l.001.003zm2.797-.095v.715h-.291v-1.906h.649c.122-.002.244.012.362.042a.72.72 0 01.258.12l-.002-.001a.499.499 0 01.144.184l.001.003a.564.564 0 01.049.233v.012-.001.007a.536.536 0 01-.21.427l-.001.001a.744.744 0 01-.252.125l-.005.001a1.223 1.223 0 01-.329.044h-.022l-.351-.005zm0-.205h.362a.84.84 0 00.22-.03l-.006.001a.517.517 0 00.164-.083l-.001.001a.358.358 0 00.134-.279v-.007c.003-.053-.007-.106-.029-.155s-.057-.094-.102-.13a.619.619 0 00-.394-.102h.002-.352v.786zm3.908.923h-.234a.118.118 0 01-.061-.018.12.12 0 01-.038-.043v-.001l-.198-.461h-.993l-.205.461a.106.106 0 01-.097.062h-.234l.872-1.909h.302l.884 1.909zm-1.439-.709h.82l-.346-.777a1.237 1.237 0 01-.063-.17l-.002-.009-.034.1a.979.979 0 01-.035.087l.003-.006-.343.776zm2.696-1.192c.017.008.032.02.044.034l1.272 1.439v-1.482h.26v1.909h-.151a.142.142 0 01-.055-.011h.001a.165.165 0 01-.047-.035l-1.271-1.438.001.033-.001.035v-.002 1.419h-.26v-1.909h.155a.15.15 0 01.052.009h-.001zm3.719 1.141v.758h-.291v-.758l-.804-1.15h.265c.022 0 .042.006.059.016h-.001a.173.173 0 01.039.042v.001l.503.742a.71.71 0 01.086.164l.002.005.038-.082a.687.687 0 01.051-.09l-.002.003.496-.747a.18.18 0 01.038-.04.096.096 0 01.058-.019h.268l-.806 1.155zM24.923 21.47c.127.014.255.025.384.035 1.962-.763 3.622-2.011 4.772-3.588s1.74-3.415 1.695-5.282l-2.162-1.879c.44 1.988.234 4.043-.594 5.935s-2.245 3.547-4.094 4.779z"/><path d="M24.151 21.383l.058.01c1.975-1.228 3.482-2.942 4.323-4.921s.981-4.133.4-6.181l-3.08-2.676c1.246 2.2 1.747 4.661 1.446 7.098s-1.393 4.75-3.147 6.67zm10.445-6.542c-.523 2.052-1.794 3.902-3.624 5.276-.534.404-1.111.763-1.722 1.074 1.49-.38 2.859-1.053 4.003-1.966s2.03-2.042 2.592-3.3l-1.249-1.084z"/><path d="M34.106 14.539l-1.778-1.545c-.034 1.762-.61 3.483-1.669 4.986s-2.562 2.731-4.352 3.559h.009c.399 0 .798-.021 1.194-.062 1.673-.593 3.151-1.537 4.303-2.748s1.94-2.65 2.295-4.189zm-9.697-8.053L22.287 4.64c-1.897.637-3.528 1.756-4.68 3.212s-1.772 3.179-1.778 4.946c.007 1.952.763 3.846 2.149 5.383s3.322 2.628 5.501 3.101c1.946-2.06 3.085-4.605 3.252-7.266s-.647-5.299-2.323-7.53zm14.599 7.769c-.008-2.316-1.07-4.535-2.955-6.173s-4.439-2.561-7.105-2.567h-.022c-1.281 0-2.512.213-3.659.606l.08-.024 12.99 11.286a7.522 7.522 0 00.672-3.128z"/></symbol><symbol id="icon-client5" viewBox="0 0 57 32"><path d="M14.27 23.859c.13.147.199.332.196.521.007.123-.017.247-.07.361s-.132.216-.233.297c-.252.175-.565.26-.881.24h-1.549v-3.302h1.517c.299-.018.596.059.84.219.098.075.176.17.227.277s.074.224.068.341l.001.031a.723.723 0 01-.177.475l.001-.001a.838.838 0 01-.457.257l-.005.001a.9.9 0 01.522.281l.001.001zm-1.816-.499h.648l.047.002a.65.65 0 00.367-.113l-.002.001c.049-.04.087-.09.111-.146s.034-.116.028-.176c.005-.06-.005-.12-.029-.175s-.061-.106-.108-.147a.658.658 0 00-.427-.111h.002-.638v.866zm1.124 1.267c.052-.041.093-.093.12-.151s.038-.121.034-.184c.004-.064-.008-.127-.035-.186s-.069-.111-.121-.153a.71.71 0 00-.397-.12l-.045.001h.002-.68v.908h.689a.728.728 0 00.438-.116l-.003.002zm3.793.651l-.844-1.291h-.317v1.291h-.726v-3.302h1.374c.346-.022.689.078.957.281.192.179.308.415.327.666s-.061.499-.224.7c-.17.178-.401.296-.655.336l.898 1.32h-.789zm-1.161-1.74h.594c.412 0 .618-.167.618-.5l.001-.03a.452.452 0 00-.152-.34.683.683 0 00-.411-.136l-.059.002h.003-.601l.007 1.005zm5.129 1.076h-1.446l-.255.665h-.761l1.328-3.265h.823l1.323 3.265h-.761l-.25-.665zm-.194-.5l-.529-1.394-.529 1.394h1.057zm5.16 1.164h-.721l-1.616-2.245v2.245h-.719v-3.302h.719l1.616 2.258v-2.258h.721v3.302zm4.112-.79a1.508 1.508 0 01-.643.578l-.009.004c-.28.132-.608.209-.954.209l-.063-.001h.003-1.283v-3.302h1.283c.351-.008.698.061 1.013.203.276.127.503.328.652.576a1.775 1.775 0 01-.004 1.741l.005-.009zm-.824-.079c.206-.219.319-.499.319-.788s-.113-.569-.319-.788a1.317 1.317 0 00-.906-.281h.004-.5v2.137h.5c.329.019.654-.082.902-.281zm-7.803-20.8s9.301 3.215 9.103 7.867v7.869s-9.294-3.217-9.1-7.869l-.004-7.867zm17.389 13.894a13.323 13.323 0 015.855-1.99l.054-.004v-2.463c-2.444.862-4.517 2.426-5.909 4.457z"/><path d="M38.124 18.245c1.438-2.651 3.93-4.696 6.964-5.715V5.432s-13.245 4.58-12.965 11.205V27.84s.59-.205 1.519-.589c0-.358 0-.719.042-1.082.274-3.076 1.871-5.926 4.44-7.924z"/><path d="M36.864 22.407c.07-.777.225-1.546.463-2.294-1.599 1.725-2.568 3.866-2.77 6.122-.019.213-.03.426-.035.645a37.343 37.343 0 002.765-1.335l-.217.106a10.374 10.374 0 01-.249-2.287c0-.337.016-.67.046-.999l-.003.042zm.527.04a10.264 10.264 0 00.175 3.004l-.012-.066c3.619-1.983 7.685-5.046 7.528-8.748v-.323c-2.585.265-5.004 1.3-6.885 2.946a10.02 10.02 0 00-.804 3.148l-.003.04z"/></symbol><symbol id="icon-client6" viewBox="0 0 57 32"><path d="M28.493 14.618a1.571 1.571 0 01-.323-1.065v.005-1.538c0-.471.107-.83.321-1.075s.581-.367 1.102-.366c.489 0 .836.104 1.042.313.224.266.333.592.308.92v.361h-.875v-.366c.003-.12-.005-.24-.025-.358a.36.36 0 00-.124-.213l-.001-.001a.499.499 0 00-.279-.084l-.039.002h.002l-.038-.001a.524.524 0 00-.297.091l.002-.001a.415.415 0 00-.145.232v.003a1.678 1.678 0 00-.034.344v.038-.002 1.866c-.014.18.025.36.112.524.044.055.104.099.175.127s.149.038.226.029a.477.477 0 00.311-.085l-.002.001a.38.38 0 00.13-.225v-.002c.02-.124.03-.249.027-.374v-.379h.875v.346c.025.342-.082.682-.303.967-.201.228-.544.343-1.047.343s-.884-.122-1.1-.375zm3.644.015c-.221-.239-.332-.588-.332-1.05v-1.617c0-.457.11-.802.332-1.037s.591-.351 1.109-.35c.515 0 .882.117 1.103.35.221.235.333.58.333 1.037v1.617c0 .457-.112.807-.337 1.048s-.591.361-1.1.361c-.509 0-.886-.122-1.109-.36zm1.517-.388a.894.894 0 00.107-.426l-.002-.055v.002-1.98a.842.842 0 00-.105-.474l.002.005c-.044-.057-.106-.101-.179-.129s-.152-.037-.231-.027c-.079-.009-.159 0-.231.028s-.135.072-.18.129a.846.846 0 00-.107.413l.002.058v-.003 1.99a.891.891 0 00.107.484l-.002-.005c.051.05.114.091.185.119a.61.61 0 00.636-.119v-.009zm2.081-3.619h.942l.708 2.984.725-2.984h.917l.092 4.308h-.678l-.072-2.994-.699 2.994h-.544l-.725-3.005-.067 3.005h-.685l.085-4.308zm4.441 0h1.468c.846 0 1.268.408 1.268 1.223 0 .781-.445 1.171-1.335 1.17h-.5v1.915h-.906l.005-4.308zm1.254 1.841a.694.694 0 00.5-.138l-.002.001a.687.687 0 00.129-.489v.003l.001-.049c0-.122-.016-.24-.047-.352l.002.009c-.013-.043-.036-.083-.067-.118s-.07-.065-.114-.087a.93.93 0 00-.356-.07l-.05.001h.002-.352v1.287h.352zm2.788-1.841h.973l.998 4.308h-.844l-.197-.993h-.868l-.203.993h-.857l.998-4.308zm.832 2.815l-.339-1.808-.339 1.808h.678zm1.946-2.815h.634l1.214 2.457v-2.457h.752v4.308h-.603l-1.221-2.565v2.565h-.777l.002-4.308zm4.361 2.665l-1.009-2.659h.85l.616 1.708.578-1.708h.832l-.997 2.659v1.642h-.87v-1.642zm-21.465 3.526v.225h-.739v1.75h-.31v-1.75H28.1v-.225h1.792zm2.317 1.976h-.245a.105.105 0 01-.061-.019.113.113 0 01-.04-.044v-.001l-.214-.469h-1.026l-.214.469a.117.117 0 01-.033.053.112.112 0 01-.063.019h-.244l.906-1.976h.315l.917 1.968zm-1.5-.734h.855l-.362-.804a1.278 1.278 0 01-.064-.176l-.003-.01a1.09 1.09 0 00-.026.076l-.008.029-.033.083-.359.802zm3.062.54a1.099 1.099 0 00.322-.025l-.007.001a.969.969 0 00.137-.038l-.007.002c.04-.014.08-.031.121-.048v-.444h-.362c-.009 0-.018-.001-.026-.003s-.016-.007-.023-.012c-.006-.004-.011-.01-.014-.016s-.005-.013-.004-.02v-.152h.703v.757a1.397 1.397 0 01-.603.202h-.006a2.416 2.416 0 01-.249.012h-.015.001-.009a1.42 1.42 0 01-.458-.076l.01.003a1.099 1.099 0 01-.363-.207l.001.001a.97.97 0 01-.232-.307l-.002-.006a.965.965 0 01-.083-.397v-.014.001l-.001-.037c0-.275.122-.521.316-.688l.001-.001c.103-.089.227-.159.362-.205.155-.05.32-.075.486-.074.084 0 .169.006.252.017.148.021.282.066.403.131l-.006-.003c.056.031.108.065.158.103l-.087.122c-.007.011-.017.021-.029.027s-.027.01-.041.01a.122.122 0 01-.057-.016h.001a1.325 1.325 0 01-.095-.05l.006.003a.687.687 0 00-.116-.051l-.005-.002a1.027 1.027 0 00-.16-.043l-.007-.001a1.31 1.31 0 00-.215-.017h-.016.001-.013c-.121 0-.237.02-.345.057l.007-.002a.705.705 0 00-.433.397l-.002.005a.917.917 0 00.002.665l-.002-.006c.087.19.246.336.441.403l.005.002c.115.034.237.047.359.039zm2.888-.032h.989v.225h-1.292v-1.976h.31l-.007 1.75zm2.019.225h-.31v-1.976h.31v1.976zm1.152-1.966a.151.151 0 01.047.036l1.324 1.489-.002-.035.002-.037v.002-1.472h.27v1.984h-.167a.13.13 0 01-.056-.012h.001a.184.184 0 01-.049-.038l-1.323-1.488v1.536h-.259v-1.976h.161c.017 0 .035.003.051.009zm3.923-.009v.217h-1.098v.652h.89v.21h-.89v.674h1.098v.217h-1.417v-1.971h1.417zM11.286 4.616l13.757 3.372v11.818l-13.757-3.371V4.616zm-.882-1.007V17.01l15.52 3.806V7.417L10.404 3.61z"/><path d="M18.722 27.036L3.2 23.227V9.828l15.522 3.807v13.401z"/><path d="M10.661 4.465l13.578 3.33-5.774 4.987L4.885 9.45l5.776-4.985zm-.257-.856L3.2 9.828l15.522 3.807 7.202-6.219-15.52-3.807zm9.191 22.673l6.329-5.465-6.329-1.553v7.018z"/></symbol><symbol id="icon-clock1" viewBox="0 0 32 32"><path d="M31.297 15.301C31.295 6.849 24.442-.002 15.989 0S.686 6.855.688 15.308c.001 6.788 4.422 12.543 10.541 14.545l.108.031a.657.657 0 00.532-.067l-.003.002a.64.64 0 00.282-.352l.001-.005 3.865-12.25a1.912 1.912 0 10-.851-3.63l.011-.005-5.106-5.107a.637.637 0 10-.902.902l5.103 5.109a1.873 1.873 0 00.532 2.306l.004.003-3.683 11.673C3.844 25.782.118 17.709 2.799 10.431S13.553-.573 20.831 2.108s11.004 10.754 8.323 18.032c-1.345 3.581-4.003 6.406-7.374 7.937l-.088.036-.398-1.874a.639.639 0 00-1.049-.343l.001-.001-3.837 3.426a.638.638 0 00.227 1.083l.005.001 4.899 1.563a.638.638 0 00.818-.745l.001.004-.391-1.839c5.528-2.374 9.329-7.772 9.329-14.057v-.034.002zm-15.305-.637a.639.639 0 110 1.278.639.639 0 110-1.278zm2.101 14.864l2.184-1.948.603 2.84-2.787-.892z"/><path fill="var(--color3, #2196f3)" d="M15.354 3.185V4.46a.638.638 0 001.276 0V3.185a.638.638 0 00-1.276 0zM3.876 14.664a.638.638 0 000 1.276h1.275a.638.638 0 000-1.276H3.876zm24.232 1.275a.638.638 0 000-1.276h-1.275a.638.638 0 000 1.276h1.275z"/></symbol><symbol id="icon-diagram1" viewBox="0 0 32 32"><path fill="var(--color3, #2196f3)" d="M14.926 14.965h1.066v4.798h-1.066v-4.797zm4.264 2.132h1.066v2.665H19.19v-2.665zm-8.529 1.599h1.066v1.066h-1.066v-1.066zm-3.198-.533h1.066v1.599H7.463v-1.599z"/><path d="M1.599 28.291h25.587a1.6 1.6 0 001.599-1.599V24.56a1.6 1.6 0 00-1.599-1.599h-.533V9.668L29.681 6.8a1.608 1.608 0 10-.741-.753l-.004-.01L26.655 8.2V6.97a1.6 1.6 0 00-1.599-1.599H3.734A1.6 1.6 0 002.135 6.97v15.992h-.533a1.6 1.6 0 00-1.599 1.599v2.132a1.6 1.6 0 001.599 1.599zM30.384 4.837a.534.534 0 110 1.068.534.534 0 110-1.068zM3.198 6.969c0-.294.239-.533.533-.533h21.322c.294 0 .533.239.533.533v2.239l-1.066 1.013V8.035a.533.533 0 00-.533-.533H4.797a.533.533 0 00-.533.533v13.326c0 .294.239.533.533.533h19.19a.533.533 0 00.533-.533v-9.674l1.066-1.01v12.284H3.198V6.969zm4.798 6.93h-.002a1.597 1.597 0 101.109 2.749h-.001l1.853.93a.528.528 0 00.636-.123v-.001l3.939-4.431 3.872 2.901a.527.527 0 00.686-.039l3.365-3.188v8.131H5.329V8.568h18.124v2.66L19.682 14.8l-3.904-2.927a.534.534 0 00-.718.071v.001l-3.993 4.493-1.493-.746c.011-.064.018-.129.02-.193A1.6 1.6 0 007.995 13.9zm.533 1.599a.533.533 0 11-1.068-.001.534.534 0 111.068 0zm3.198 8.529h5.331v.533a.533.533 0 01-.533.533h-4.264a.533.533 0 01-.533-.533v-.533zm-10.661.533c0-.294.239-.533.533-.533h9.062v.533a1.6 1.6 0 001.599 1.599h4.264a1.6 1.6 0 001.599-1.599v-.533h9.062c.294 0 .533.239.533.533v2.132a.533.533 0 01-.533.533H1.598a.533.533 0 01-.533-.533V24.56z"/></symbol><symbol id="icon-envelope" viewBox="0 0 43 32"><path d="M38.667 0H4C1.794 0 0 1.794 0 4v24c0 2.206 1.794 4 4 4h34.667c2.206 0 4-1.794 4-4V4c0-2.206-1.794-4-4-4zm0 2.667c.181 0 .353.038.511.103L21.334 18.236 3.49 2.77c.151-.065.327-.103.511-.103h34.667zm0 26.666H4A1.335 1.335 0 012.667 28V5.587L20.46 21.008a1.331 1.331 0 001.75-.001l-.002.001L40.001 5.587V28c0 .736-.598 1.333-1.333 1.333z"/></symbol><symbol id="icon-facebook" viewBox="0 0 32 32"><path d="M19 6h5V0h-5c-3.86 0-7 3.14-7 7v3H8v6h4v16h6V16h5l1-6h-6V7c0-.542.458-1 1-1z"/></symbol><symbol id="icon-instagram" viewBox="0 0 32 32"><path d="M16 2.881c4.275 0 4.781.019 6.462.094 1.563.069 2.406.331 2.969.55.72.27 1.334.677 1.836 1.193l.001.001a5.013 5.013 0 011.188 1.804l.012.034c.219.563.481 1.412.55 2.969.075 1.688.094 2.194.094 6.463s-.019 4.781-.094 6.463c-.069 1.563-.331 2.406-.55 2.969a4.976 4.976 0 01-1.193 1.836l-.001.001a5.023 5.023 0 01-1.803 1.188l-.034.012c-.563.219-1.413.481-2.969.55-1.688.075-2.194.094-6.463.094s-4.781-.019-6.463-.094c-1.563-.069-2.406-.331-2.969-.55a4.972 4.972 0 01-1.837-1.193l-.001-.001a5.023 5.023 0 01-1.188-1.803l-.012-.034c-.219-.563-.481-1.413-.55-2.969-.075-1.688-.094-2.194-.094-6.463s.019-4.781.094-6.463c.069-1.563.331-2.406.55-2.969a4.98 4.98 0 011.193-1.837l.001-.001a5.013 5.013 0 011.804-1.188l.034-.012c.563-.219 1.412-.481 2.969-.55 1.681-.075 2.188-.094 6.463-.094zM16 0c-4.344 0-4.887.019-6.594.094-1.7.075-2.869.35-3.881.744-1.056.412-1.95.956-2.837 1.85A7.856 7.856 0 00.856 5.465l-.018.054C.444 6.538.169 7.7.094 9.4.019 11.113 0 11.656 0 16s.019 4.887.094 6.594c.075 1.7.35 2.869.744 3.881.413 1.056.956 1.95 1.85 2.837a7.822 7.822 0 002.778 1.826l.053.018c1.019.394 2.181.669 3.881.744 1.706.075 2.25.094 6.594.094s4.888-.019 6.594-.094c1.7-.075 2.869-.35 3.881-.744 1.05-.406 1.944-.956 2.831-1.844s1.438-1.781 1.844-2.831c.394-1.019.669-2.181.744-3.881.075-1.706.094-2.25.094-6.594s-.019-4.887-.094-6.594c-.075-1.7-.35-2.869-.744-3.881a7.547 7.547 0 00-1.829-2.842l-.002-.002A7.827 7.827 0 0026.536.861l-.053-.018C25.464.449 24.302.174 22.602.099c-1.712-.081-2.256-.1-6.6-.1z"/><path d="M16 7.781c-4.537 0-8.219 3.681-8.219 8.219s3.681 8.219 8.219 8.219 8.219-3.681 8.219-8.219A8.22 8.22 0 0016 7.781zm0 13.55a5.332 5.332 0 010-10.664 5.332 5.332 0 01-.001 10.664zM26.462 7.456a1.919 1.919 0 11-3.838 0 1.919 1.919 0 113.838 0z"/></symbol><symbol id="icon-linkedin2" viewBox="0 0 32 32"><path d="M12 12h5.535v2.837h.079c.77-1.381 2.655-2.837 5.464-2.837C28.92 12 30 15.637 30 20.367V30h-5.769v-8.54c0-2.037-.042-4.657-3.001-4.657-3.005 0-3.463 2.218-3.463 4.509V30H12V12zM2 12h6v18H2V12zm6-5a3 3 0 11-6 0 3 3 0 116 0z"/></symbol><symbol id="icon-smartphone" viewBox="0 0 20 32"><path d="M17 0H3C1.346 0 0 1.346 0 3v26c0 1.654 1.346 3 3 3h14c1.654 0 3-1.346 3-3V3c0-1.654-1.346-3-3-3zM3 2h14a1 1 0 011 1v21H2V3a1 1 0 011-1zm14 28H3a1 1 0 01-1-1v-3h16v3a1 1 0 01-1 1z"/><path d="M4.707 27.478c.391.365.391.956 0 1.321s-1.024.365-1.414 0c-.391-.365-.391-.956 0-1.321s1.024-.365 1.414 0z"/></symbol><symbol id="icon-twitter" viewBox="0 0 32 32"><path d="M32 7.075A12.607 12.607 0 0128.292 8.1l-.061.006a6.633 6.633 0 002.874-3.584l.013-.047a12.97 12.97 0 01-4.084 1.58l-.085.014A6.548 6.548 0 0022.165 4h-.011.001a6.563 6.563 0 00-6.563 6.563c0 .512.056 1.012.169 1.494A18.621 18.621 0 012.256 5.228l-.026-.033a6.482 6.482 0 00-.887 3.294v.014a6.55 6.55 0 002.896 5.44l.023.015a6.55 6.55 0 01-3.008-.836l.033.017v.082a6.567 6.567 0 005.226 6.428l.043.007a6.624 6.624 0 01-3.01.105l.042.007c.867 2.627 3.272 4.501 6.124 4.563h.007a13.084 13.084 0 01-8.138 2.815 13.25 13.25 0 01-1.652-.103l.065.007C2.832 28.9 6.306 30 10.036 30h.028-.001c12.075 0 18.681-10.006 18.681-18.681 0-.287-.006-.569-.019-.85a13.337 13.337 0 003.245-3.347l.03-.047z"/></symbol></defs></svg>